/* XPM */
static char *fba9f0d0e3a44f52fe3132690aaec18eRh6x6VR04oVEEQ7q[] = {
/* columns rows colors chars-per-pixel */
"64 64 2 1 ",
"  c #FFF200",
". c white",
/* pixels */
"................................................................",
"................................................................",
"................................................................",
"................................................................",
"................................................................",
"...................... ..    ...................................",
"..................... .... .....................................",
"............... ...  .  . .   ..................................",
".............. ... .    .  .  ..................................",
"............. .    . ..      . .................................",
"...........   ..   ..      . .   ...............................",
".............    . .         .  ................................",
"........   . .   .  ... . .   .  ...............................",
".......... .   . .    .   . ...  ...............................",
".......   .  ..   . ..     .      ..............................",
"....... ... . .   .     .. .. . . . ............................",
"....... . ...     .  .    .       ..............................",
"....... . .  .      ..  ..      . ..............................",
"...... ...      ... ...   . .  .................................",
"...... .. ..  .. ..........  .    . ............................",
"........  .   .. ..........  .     .............................",
"....... .     .    ....           ..............................",
"..........      . . .. .. .  .  . ..............................",
"....... .  ...        . .  . .  . ..............................",
".........  ..  . .  .      .  ... ..............................",
"........... ... ..   . .  .. .   ...............................",
"........  ...       . . .         ... ..........................",
".........  .. ....  ...  ..   . .   ............................",
"...........   . .  .  ..     . . .    ..........................",
"...........  .    ... ...    ..   ..    ........................",
"............. . . ..      .   . . ..  .  .......................",
".............  ... . ..  .  .   ..   . .  ......................",
".................. ....   .......  .. ..   .....................",
"........................... ... .           ....................",
"............................           . .    ..................",
".......................... ..  .           .   .................",
".............................. .      . . .     ................",
"........................ .    .    .    .   .     ..............",
".....................   .        .  .             ..............",
".....................  .      .. . . .        . .   ............",
"......................   .  .        ..      .  .   .. .........",
"....................     .  .   .... .           . . . .........",
"....................  .. ..        ....  .        . .  . .......",
".................... .    . .. .........   .         . .. ......",
".....................  ...      . .......         .  ..  .......",
"...................... .. .  ............    .      . ..   .....",
"..................... ...  .  .............         .  . . .....",
"....................... ..... ............   .      ... . ......",
".......................... ...............  ....      . ........",
"...........................................   .        .........",
".........................................    .      .. .........",
"......................................   .. ..    ...  .........",
"................................... . .     ...  .   ...........",
"..................................           ..   . ............",
".................................. .   ..     .. ...............",
".................................. ....         ................",
"................................... .  ...    .. ...............",
"................................. . ...        . ...............",
"................................. ..    . .. .. ................",
"..................................  .  . .   ...................",
".....................................  . .......................",
"................................... . . ... ....................",
"..................................... ..........................",
"................................................................"
};
