/* XPM */
static char *_dbab18abe7a43abecbdfc6003923898HoiOO8L44ilkMOeR[] = {
/* columns rows colors chars-per-pixel */
"64 64 4 1 ",
"  c black",
". c #A8E61D",
"X c #FFC20E",
"o c white",
/* pixels */
"................................................................",
"................................................................",
"................................................................",
"................................................................",
"................................................................",
"................................................................",
"................................................................",
"................................................................",
"................................................................",
"................................................................",
"................................................................",
"................................................................",
"..........................            ..........................",
"..........................            ..........................",
"......................      oooooo        ......................",
"......................      oooooo        ......................",
"....................    ooooXXXXXXXXXX    ......................",
"....................    ooooXXXXXXXXXX    ......................",
"....................  ooXXXXoooooo  XXXX    ....................",
"....................  ooXXXXoooooo  XXXX    ....................",
"..................    ooXXXXooXXXX  XXXX    ....................",
"..................    ooXXXXooXXXX  XXXX    ....................",
"..................  ooXXXXXXooXXXX  XXXXXX    ..................",
"..................  ooXXXXXXooXXXX  XXXXXX    ..................",
"..................  ooXXXXXXooXXXX  XXXXXX    ..................",
"..................  ooXXXXXXooXXXX  XXXXXX    ..................",
"..................  ooXXXXXXooXXXX  XXXXXX    ..................",
"..................  ooXXXXXXooXXXX  XXXXXX    ..................",
"..................  ooXXXXXXooXXXX  XXXXXX    ..................",
"..................  ooXXXXXXooXXXX  XXXXXX    ..................",
"..................  ooXXXXXXooXXXX  XXXXXX    ..................",
"..................  ooXXXXXXooXXXX  XXXXXX    ..................",
"..................  ooXXXXXXooXXXX  XXXXXX    ..................",
"..................  ooXXXXXXooXXXX  XXXXXX    ..................",
"..................    ooXXXXooXXXX  XXXX    ....................",
"..................    ooXXXXooXXXX  XXXX    ....................",
"....................  ooXXXX        XXXX    ....................",
"....................  ooXXXX        XXXX    ....................",
"....................    ooXXXXXXXXXXXX    ......................",
"....................    ooXXXXXXXXXXXX    ......................",
"......................      XXXXXX        ......................",
"......................      XXXXXX        ......................",
"..........................            ..........................",
"..........................            ..........................",
"................................................................",
"................................................................",
"................................................................",
"................................................................",
"................................................................",
"................................................................",
"................................................................",
"................................................................",
"................................................................",
"................................................................",
"................................................................",
"................................................................",
"................................................................",
"................................................................",
"................................................................",
"................................................................",
"................................................................",
"................................................................",
"................................................................",
"................................................................"
};
