/* XPM */
static char *_0646587942a4ea2c3b8f1875eb8fadcCwRuk977Wd6y7Svc[] = {
/* columns rows colors chars-per-pixel */
"64 64 4 1 ",
"  c black",
". c #22B14C",
"X c #A8E61D",
"o c #D3F9BC",
/* pixels */
"XXXXXXXXXXXXXXXXXXXXXXXXXXXXXXXXXXXXXXXXXXXXXXXXXXXXXXXXXXXXXXXX",
"XXXXXXXXXXXXXXXXXXXXXXXXXXXXXXXXXXXXXXXXXXXXXXXXXXXXXXXXXXXXXXXX",
"XXXXXXXXXXXXXXXXXXXXXXXXXXXXXXXXXXXXXXXXXXXXXXXXXXXXXXXXXXXXXXXX",
"XXXXXXXXXXXXXXXXXXXXXXXXXXXXXXXXXXXXXXXXXXXXXXXXXXXXXXXXXXXXXXXX",
"XXXXXXXXXXXXXXXXXXXXXXXXXXXXXXXXXXXXXXXXXXXXXXXXXXXXXXXXXXXXXXXX",
"XXXXXXXXXXXXXXXXXXXXXXXXXXXXXXXXXXXXXXXXXXXXXXXXXXXXXXXXXXXXXXXX",
"XXXXXX                                                    XXXXXX",
"XXXXXX                                                    XXXXXX",
"XXXXXX  oooooooooooooooooooooooooooooooooooooooooooooooo  XXXXXX",
"XXXXXX  oooooooooooooooooooooooooooooooooooooooooooooooo  XXXXXX",
"XXXXXX  ........oooooooo................................  XXXXXX",
"XXXXXX  ........oooooooo................................  XXXXXX",
"XXXXXX  oooo....oooooooo..oooo..............oo..oooooo..  XXXXXX",
"XXXXXX  oooo....oooooooo..oooo..............oo..oooooo..  XXXXXX",
"XXXXXX  oooo....oooooooo..oooo................oo..oooo..  XXXXXX",
"XXXXXX  oooo....oooooooo..oooo................oo..oooo..  XXXXXX",
"XXXXXX  oooo....oooooooo..oooo..............oo..oooooo..  XXXXXX",
"XXXXXX  oooo....oooooooo..oooo..............oo..oooooo..  XXXXXX",
"XXXXXX  oooo....oooooooo..oooo................oo..oooo..  XXXXXX",
"XXXXXX  oooo....oooooooo..oooo................oo..oooo..  XXXXXX",
"XXXXXX  oooo....oooooooo..oooo..............oo..oooooo..  XXXXXX",
"XXXXXX  oooo....oooooooo..oooo..............oo..oooooo..  XXXXXX",
"XXXXXX  oooo....oooooooo..oooo................oo..oooo..  XXXXXX",
"XXXXXX  oooo....oooooooo..oooo................oo..oooo..  XXXXXX",
"XXXXXX  oooo....oooooooo..oooo..............oo..oooooo..  XXXXXX",
"XXXXXX  oooo....oooooooo..oooo..............oo..oooooo..  XXXXXX",
"XXXXXX  oooo....oooooooo..oooo................oo..oooo..  XXXXXX",
"XXXXXX  oooo....oooooooo..oooo................oo..oooo..  XXXXXX",
"XXXXXX  oooo....oooooooo..oooo..............oo..oooooo..  XXXXXX",
"XXXXXX  oooo....oooooooo..oooo..............oo..oooooo..  XXXXXX",
"XXXXXX                                                    XXXXXX",
"XXXXXX                                                    XXXXXX",
"XXXXXXXX                                                XXXXXXXX",
"XXXXXXXX                                                XXXXXXXX",
"XXXXXXXXXX                                            XXXXXXXXXX",
"XXXXXXXXXX                                            XXXXXXXXXX",
"XXXXXXXXXX  oooo....oooooooo..oooo........oo..oooo..  XXXXXXXXXX",
"XXXXXXXXXX  oooo....oooooooo..oooo........oo..oooo..  XXXXXXXXXX",
"XXXXXXXXXX  oooo....oooooooo..oooo......oo..oooooo..  XXXXXXXXXX",
"XXXXXXXXXX  oooo....oooooooo..oooo......oo..oooooo..  XXXXXXXXXX",
"XXXXXXXXXX  oooo....oooooooo..oooo........oo..oooo..  XXXXXXXXXX",
"XXXXXXXXXX  oooo....oooooooo..oooo........oo..oooo..  XXXXXXXXXX",
"XXXXXXXXXX  oooo....oooooooo..oooo......oo..oooooo..  XXXXXXXXXX",
"XXXXXXXXXX  oooo....oooooooo..oooo......oo..oooooo..  XXXXXXXXXX",
"XXXXXXXXXX  oooo....oooooooo..oooo........oo..oooo..  XXXXXXXXXX",
"XXXXXXXXXX  oooo....oooooooo..oooo........oo..oooo..  XXXXXXXXXX",
"XXXXXXXXXX  oooo....oooooooo..oooo......oo..oooooo..  XXXXXXXXXX",
"XXXXXXXXXX  oooo....oooooooo..oooo......oo..oooooo..  XXXXXXXXXX",
"XXXXXXXXXX  oooo....oooooooo..oooo........oo..oooo..  XXXXXXXXXX",
"XXXXXXXXXX  oooo....oooooooo..oooo........oo..oooo..  XXXXXXXXXX",
"XXXXXXXXXX  oooo....oooooooo..oooo......oo..oooooo..  XXXXXXXXXX",
"XXXXXXXXXX  oooo....oooooooo..oooo......oo..oooooo..  XXXXXXXXXX",
"XXXXXXXXXX  oooo....oooooooo..oooo........oo..oooo..  XXXXXXXXXX",
"XXXXXXXXXX  oooo....oooooooo..oooo........oo..oooo..  XXXXXXXXXX",
"XXXXXXXXXX  oooo....oooooooo..oooo......oo..oooooo..  XXXXXXXXXX",
"XXXXXXXXXX  oooo....oooooooo..oooo......oo..oooooo..  XXXXXXXXXX",
"XXXXXXXXXX  oooo....oooooooo..oooo........oo..oooo..  XXXXXXXXXX",
"XXXXXXXXXX  oooo....oooooooo..oooo........oo..oooo..  XXXXXXXXXX",
"XXXXXXXXXX  oooo....oooooooo..oooo......oo..oooooo..  XXXXXXXXXX",
"XXXXXXXXXX  oooo....oooooooo..oooo......oo..oooooo..  XXXXXXXXXX",
"XXXXXXXXXX  oooo....oooooooo..oooo........oo..oooo..  XXXXXXXXXX",
"XXXXXXXXXX  oooo....oooooooo..oooo........oo..oooo..  XXXXXXXXXX",
"XXXXXXXXXX  oooo....oooooooo..oooo......oo..oooooo..  XXXXXXXXXX",
"XXXXXXXXXX  oooo....oooooooo..oooo......oo..oooooo..  XXXXXXXXXX"
};
