/* XPM */
static char *_02dab68857a46bc8346221d6fbdef30WSrLu3NeMirgBQGv[] = {
/* columns rows colors chars-per-pixel */
"64 64 2 1 ",
"  c black",
". c white",
/* pixels */
"................................................................",
"............................. ..................................",
".............. .. ......... . ...... ...........................",
"............ .................... . .... . .....................",
"........................ ...... . ..    ........................",
"....................    .    .  .. ..  . ..... .................",
"................... .  . ..      . ..   ..  .. .................",
"................. .    . .. .  .   . .  .... .. ................",
"............. .  .   .           .     ... . ...................",
"........ . ... ... .            .  .        . ..................",
"...... ... ...   .      .  .                . .. .  ............",
"........ . .....                   .   . .  ...  . .. ..........",
"...... ........ .   .             .    .   ..  .... ............",
"..... .  ...  .                    .             ...............",
"...... .   ..                    .   .   . ..... . .............",
"...........                     .   .         ...  ..... .......",
".. ..........                   .   .      .  .   ........ .. ..",
".......       .                             .    . ...... ... . ",
"... . . ...                     .                   . . ........",
". ..  ...   .                            .      ....   .........",
".... .  .  . .                          .         .   ..... ..  ",
". ..     ..   .                     .  .  .         .. . .. ....",
".......                                 . .   .    . ....   ....",
".... .  . .        .                                    ... ....",
". . .  ..      .                        .     ..    .. .........",
"... .   ..  .                                          .....  ..",
"....  ..             .                         .  . . .. ...... ",
".. .....   .                               .           ..... .  ",
"..                                              . .    . .. ....",
".....   .                                             . ...... .",
". .. ..       .  .  .                          .  ..  ..    ....",
"... .....                                             .. ...... ",
".... .    .    .                                    . .  .......",
". .. ..      .                        .               . .... ...",
"........ .  .                       .                   ........",
" .. ..   .                            .               .  .......",
"... ....  ... .    .                                   .. ......",
".....    .. .                                      . .. ... ....",
".. ..  ...     .                                     .  .. . ...",
"... ...      ...                                   .  ..........",
"... ..  ..    .                         .            . .. ......",
".. ........   .                      .     .          .. .......",
"...... ..   .     .                  .               .  ........",
". .... ... . .. ..  .              ..              .  .. .......",
"......  . . .. ..   ..   .            .     .      .   . .......",
" ....... .. . ...               .       .        . . ...... . ..",
".......    ....  .  . ... .  ..  .. .    . ...       ...........",
"........  .... .. .     ... .         .   .     . .......... ...",
"......... .. . . .       . ..  .      .  ......  . .  ........ .",
".............. . .      . . .. .   .  . . ... .  ... ........ ..",
"................ ..      .. .    ...    ..  .... .. ............",
"................ .   ... . ..  .     . .  .   ......  .. .......",
"..... .......... . ...   .. .. ...  .. . . .    ........ ... ...",
"...................    . .. .. . . . .. ... . ..................",
"........... ................  ..................................",
".................... .... ...... .. .... .......................",
"....................... ...  ...... ............................",
"............................... .. .............................",
"................................................................",
"................................................................",
"................................................................",
"................................................................",
"................................................................",
"................................................................"
};
