/* XPM */
static char *result[] = {
/* columns rows colors chars-per-pixel */
"64 64 7 1 ",
"  c black",
". c #ED1C24",
"X c #9C5A3C",
"o c #FFF200",
"O c #E5AA7A",
"+ c #4D6DF3",
"@ c white",
/* pixels */
"@@@@@@@@@@@@@@@@@@@@....................@@@@@@@@@@@@@@@@@@@@@@@@",
"@@@@@@@@@@@@@@@@@@@@....................@@@@@@@@@@@@@@@@@@@@@@@@",
"@@@@@@@@@@@@@@@@@@@@....................@@@@@@@@@@@@@@@@@@@@@@@@",
"@@@@@@@@@@@@@@@@@@@@....................@@@@@@@@@@@@@@@@@@@@@@@@",
"@@@@@@@@@@@@@@@@....................................@@@@@@@@@@@@",
"@@@@@@@@@@@@@@@@....................................@@@@@@@@@@@@",
"@@@@@@@@@@@@@@@@....................................@@@@@@@@@@@@",
"@@@@@@@@@@@@@@@@....................................@@@@@@@@@@@@",
"@@@@@@@@@@@@@@@@XXXXXXXXXXXXOOOOOOOO    OOOO@@@@@@@@@@@@@@@@@@@@",
"@@@@@@@@@@@@@@@@XXXXXXXXXXXXOOOOOOOO    OOOO@@@@@@@@@@@@@@@@@@@@",
"@@@@@@@@@@@@@@@@XXXXXXXXXXXXOOOOOOOO    OOOO@@@@@@@@@@@@@@@@@@@@",
"@@@@@@@@@@@@@@@@XXXXXXXXXXXXOOOOOOOO    OOOO@@@@@@@@@@@@@@@@@@@@",
"@@@@@@@@@@@@XXXXOOOOXXXXOOOOOOOOOOOO    OOOOOOOOOOOO@@@@@@@@@@@@",
"@@@@@@@@@@@@XXXXOOOOXXXXOOOOOOOOOOOO    OOOOOOOOOOOO@@@@@@@@@@@@",
"@@@@@@@@@@@@XXXXOOOOXXXXOOOOOOOOOOOO    OOOOOOOOOOOO@@@@@@@@@@@@",
"@@@@@@@@@@@@XXXXOOOOXXXXOOOOOOOOOOOO    OOOOOOOOOOOO@@@@@@@@@@@@",
"@@@@@@@@@@@@XXXXOOOOXXXXXXXXOOOOOOOOOOOOXXXXOOOOOOOOOOOO@@@@@@@@",
"@@@@@@@@@@@@XXXXOOOOXXXXXXXXOOOOOOOOOOOOXXXXOOOOOOOOOOOO@@@@@@@@",
"@@@@@@@@@@@@XXXXOOOOXXXXXXXXOOOOOOOOOOOOXXXXOOOOOOOOOOOO@@@@@@@@",
"@@@@@@@@@@@@XXXXOOOOXXXXXXXXOOOOOOOOOOOOXXXXOOOOOOOOOOOO@@@@@@@@",
"@@@@@@@@@@@@XXXXXXXXOOOOOOOOOOOOOOOOXXXXXXXXXXXXXXXX@@@@@@@@@@@@",
"@@@@@@@@@@@@XXXXXXXXOOOOOOOOOOOOOOOOXXXXXXXXXXXXXXXX@@@@@@@@@@@@",
"@@@@@@@@@@@@XXXXXXXXOOOOOOOOOOOOOOOOXXXXXXXXXXXXXXXX@@@@@@@@@@@@",
"@@@@@@@@@@@@XXXXXXXXOOOOOOOOOOOOOOOOXXXXXXXXXXXXXXXX@@@@@@@@@@@@",
"@@@@@@@@@@@@@@@@@@@@OOOOOOOOOOOOOOOOOOOOOOOOOOOO@@@@@@@@@@@@@@@@",
"@@@@@@@@@@@@@@@@@@@@OOOOOOOOOOOOOOOOOOOOOOOOOOOO@@@@@@@@@@@@@@@@",
"@@@@@@@@@@@@@@@@@@@@OOOOOOOOOOOOOOOOOOOOOOOOOOOO@@@@@@@@@@@@@@@@",
"@@@@@@@@@@@@@@@@@@@@OOOOOOOOOOOOOOOOOOOOOOOOOOOO@@@@@@@@@@@@@@@@",
"@@@@@@@@@@@@@@@@........++++............@@@@@@@@@@@@@@@@@@@@@@@@",
"@@@@@@@@@@@@@@@@........++++............@@@@@@@@@@@@@@@@@@@@@@@@",
"@@@@@@@@@@@@@@@@........++++............@@@@@@@@@@@@@@@@@@@@@@@@",
"@@@@@@@@@@@@@@@@........++++............@@@@@@@@@@@@@@@@@@@@@@@@",
"@@@@@@@@@@@@............++++........++++............@@@@@@@@@@@@",
"@@@@@@@@@@@@............++++........++++............@@@@@@@@@@@@",
"@@@@@@@@@@@@............++++........++++............@@@@@@@@@@@@",
"@@@@@@@@@@@@............++++........++++............@@@@@@@@@@@@",
"@@@@@@@@................++++++++++++++++................@@@@@@@@",
"@@@@@@@@................++++++++++++++++................@@@@@@@@",
"@@@@@@@@................++++++++++++++++................@@@@@@@@",
"@@@@@@@@................++++++++++++++++................@@@@@@@@",
"@@@@@@@@OOOOOOOO....++++oooo++++++++oooo++++....OOOOOOOO@@@@@@@@",
"@@@@@@@@OOOOOOOO....++++oooo++++++++oooo++++....OOOOOOOO@@@@@@@@",
"@@@@@@@@OOOOOOOO....++++oooo++++++++oooo++++....OOOOOOOO@@@@@@@@",
"@@@@@@@@OOOOOOOO....++++oooo++++++++oooo++++....OOOOOOOO@@@@@@@@",
"@@@@@@@@OOOOOOOOOOOO++++++++++++++++++++++++OOOOOOOOOOOO@@@@@@@@",
"@@@@@@@@OOOOOOOOOOOO++++++++++++++++++++++++OOOOOOOOOOOO@@@@@@@@",
"@@@@@@@@OOOOOOOOOOOO++++++++++++++++++++++++OOOOOOOOOOOO@@@@@@@@",
"@@@@@@@@OOOOOOOOOOOO++++++++++++++++++++++++OOOOOOOOOOOO@@@@@@@@",
"@@@@@@@@OOOOOOOO++++++++++++++++++++++++++++++++OOOOOOOO@@@@@@@@",
"@@@@@@@@OOOOOOOO++++++++++++++++++++++++++++++++OOOOOOOO@@@@@@@@",
"@@@@@@@@OOOOOOOO++++++++++++++++++++++++++++++++OOOOOOOO@@@@@@@@",
"@@@@@@@@OOOOOOOO++++++++++++++++++++++++++++++++OOOOOOOO@@@@@@@@",
"@@@@@@@@@@@@@@@@++++++++++++@@@@@@@@++++++++++++@@@@@@@@@@@@@@@@",
"@@@@@@@@@@@@@@@@++++++++++++@@@@@@@@++++++++++++@@@@@@@@@@@@@@@@",
"@@@@@@@@@@@@@@@@++++++++++++@@@@@@@@++++++++++++@@@@@@@@@@@@@@@@",
"@@@@@@@@@@@@@@@@++++++++++++@@@@@@@@++++++++++++@@@@@@@@@@@@@@@@",
"@@@@@@@@@@@@XXXXXXXXXXXX@@@@@@@@@@@@@@@@XXXXXXXXXXXX@@@@@@@@@@@@",
"@@@@@@@@@@@@XXXXXXXXXXXX@@@@@@@@@@@@@@@@XXXXXXXXXXXX@@@@@@@@@@@@",
"@@@@@@@@@@@@XXXXXXXXXXXX@@@@@@@@@@@@@@@@XXXXXXXXXXXX@@@@@@@@@@@@",
"@@@@@@@@@@@@XXXXXXXXXXXX@@@@@@@@@@@@@@@@XXXXXXXXXXXX@@@@@@@@@@@@",
"@@@@@@@@XXXXXXXXXXXXXXXX@@@@@@@@@@@@@@@@XXXXXXXXXXXXXXXX@@@@@@@@",
"@@@@@@@@XXXXXXXXXXXXXXXX@@@@@@@@@@@@@@@@XXXXXXXXXXXXXXXX@@@@@@@@",
"@@@@@@@@XXXXXXXXXXXXXXXX@@@@@@@@@@@@@@@@XXXXXXXXXXXXXXXX@@@@@@@@",
"@@@@@@@@XXXXXXXXXXXXXXXX@@@@@@@@@@@@@@@@XXXXXXXXXXXXXXXX@@@@@@@@"
};
