/* XPM */
static char *e67aed2face440ca933ca34fc396ea82ju7wHjUEYaVKk2na[] = {
/* columns rows colors chars-per-pixel */
"64 64 7 1 ",
"  c black",
". c #ED1C24",
"X c #9C5A3C",
"o c #A8E61D",
"O c #FFF200",
"+ c #E5AA7A",
"@ c #4D6DF3",
/* pixels */
"oooooooooooooooooooo....................oooooooooooooooooooooooo",
"oooooooooooooooooooo....................oooooooooooooooooooooooo",
"oooooooooooooooooooo....................oooooooooooooooooooooooo",
"oooooooooooooooooooo....................oooooooooooooooooooooooo",
"oooooooooooooooo....................................oooooooooooo",
"oooooooooooooooo....................................oooooooooooo",
"oooooooooooooooo....................................oooooooooooo",
"oooooooooooooooo....................................oooooooooooo",
"ooooooooooooooooXXXXXXXXXXXX++++++++    ++++oooooooooooooooooooo",
"ooooooooooooooooXXXXXXXXXXXX++++++++    ++++oooooooooooooooooooo",
"ooooooooooooooooXXXXXXXXXXXX++++++++    ++++oooooooooooooooooooo",
"ooooooooooooooooXXXXXXXXXXXX++++++++    ++++oooooooooooooooooooo",
"ooooooooooooXXXX++++XXXX++++++++++++    ++++++++++++oooooooooooo",
"ooooooooooooXXXX++++XXXX++++++++++++    ++++++++++++oooooooooooo",
"ooooooooooooXXXX++++XXXX++++++++++++    ++++++++++++oooooooooooo",
"ooooooooooooXXXX++++XXXX++++++++++++    ++++++++++++oooooooooooo",
"ooooooooooooXXXX++++XXXXXXXX++++++++++++XXXX++++++++++++oooooooo",
"ooooooooooooXXXX++++XXXXXXXX++++++++++++XXXX++++++++++++oooooooo",
"ooooooooooooXXXX++++XXXXXXXX++++++++++++XXXX++++++++++++oooooooo",
"ooooooooooooXXXX++++XXXXXXXX++++++++++++XXXX++++++++++++oooooooo",
"ooooooooooooXXXXXXXX++++++++++++++++XXXXXXXXXXXXXXXXoooooooooooo",
"ooooooooooooXXXXXXXX++++++++++++++++XXXXXXXXXXXXXXXXoooooooooooo",
"ooooooooooooXXXXXXXX++++++++++++++++XXXXXXXXXXXXXXXXoooooooooooo",
"ooooooooooooXXXXXXXX++++++++++++++++XXXXXXXXXXXXXXXXoooooooooooo",
"oooooooooooooooooooo++++++++++++++++++++++++++++oooooooooooooooo",
"oooooooooooooooooooo++++++++++++++++++++++++++++oooooooooooooooo",
"oooooooooooooooooooo++++++++++++++++++++++++++++oooooooooooooooo",
"oooooooooooooooooooo++++++++++++++++++++++++++++oooooooooooooooo",
"oooooooooooooooo........@@@@............oooooooooooooooooooooooo",
"oooooooooooooooo........@@@@............oooooooooooooooooooooooo",
"oooooooooooooooo........@@@@............oooooooooooooooooooooooo",
"oooooooooooooooo........@@@@............oooooooooooooooooooooooo",
"oooooooooooo............@@@@........@@@@............oooooooooooo",
"oooooooooooo............@@@@........@@@@............oooooooooooo",
"oooooooooooo............@@@@........@@@@............oooooooooooo",
"oooooooooooo............@@@@........@@@@............oooooooooooo",
"oooooooo................@@@@@@@@@@@@@@@@................oooooooo",
"oooooooo................@@@@@@@@@@@@@@@@................oooooooo",
"oooooooo................@@@@@@@@@@@@@@@@................oooooooo",
"oooooooo................@@@@@@@@@@@@@@@@................oooooooo",
"oooooooo++++++++....@@@@OOOO@@@@@@@@OOOO@@@@....++++++++oooooooo",
"oooooooo++++++++....@@@@OOOO@@@@@@@@OOOO@@@@....++++++++oooooooo",
"oooooooo++++++++....@@@@OOOO@@@@@@@@OOOO@@@@....++++++++oooooooo",
"oooooooo++++++++....@@@@OOOO@@@@@@@@OOOO@@@@....++++++++oooooooo",
"oooooooo++++++++++++@@@@@@@@@@@@@@@@@@@@@@@@++++++++++++oooooooo",
"oooooooo++++++++++++@@@@@@@@@@@@@@@@@@@@@@@@++++++++++++oooooooo",
"oooooooo++++++++++++@@@@@@@@@@@@@@@@@@@@@@@@++++++++++++oooooooo",
"oooooooo++++++++++++@@@@@@@@@@@@@@@@@@@@@@@@++++++++++++oooooooo",
"oooooooo++++++++@@@@@@@@@@@@@@@@@@@@@@@@@@@@@@@@++++++++oooooooo",
"oooooooo++++++++@@@@@@@@@@@@@@@@@@@@@@@@@@@@@@@@++++++++oooooooo",
"oooooooo++++++++@@@@@@@@@@@@@@@@@@@@@@@@@@@@@@@@++++++++oooooooo",
"oooooooo++++++++@@@@@@@@@@@@@@@@@@@@@@@@@@@@@@@@++++++++oooooooo",
"oooooooooooooooo@@@@@@@@@@@@oooooooo@@@@@@@@@@@@oooooooooooooooo",
"oooooooooooooooo@@@@@@@@@@@@oooooooo@@@@@@@@@@@@oooooooooooooooo",
"oooooooooooooooo@@@@@@@@@@@@oooooooo@@@@@@@@@@@@oooooooooooooooo",
"oooooooooooooooo@@@@@@@@@@@@oooooooo@@@@@@@@@@@@oooooooooooooooo",
"ooooooooooooXXXXXXXXXXXXooooooooooooooooXXXXXXXXXXXXoooooooooooo",
"ooooooooooooXXXXXXXXXXXXooooooooooooooooXXXXXXXXXXXXoooooooooooo",
"ooooooooooooXXXXXXXXXXXXooooooooooooooooXXXXXXXXXXXXoooooooooooo",
"ooooooooooooXXXXXXXXXXXXooooooooooooooooXXXXXXXXXXXXoooooooooooo",
"ooooooooXXXXXXXXXXXXXXXXooooooooooooooooXXXXXXXXXXXXXXXXoooooooo",
"ooooooooXXXXXXXXXXXXXXXXooooooooooooooooXXXXXXXXXXXXXXXXoooooooo",
"ooooooooXXXXXXXXXXXXXXXXooooooooooooooooXXXXXXXXXXXXXXXXoooooooo",
"ooooooooXXXXXXXXXXXXXXXXooooooooooooooooXXXXXXXXXXXXXXXXoooooooo"
};
