/* XPM */
static char *_5151d8ca1bf45afa1f735a61e8fa74bSDRH3YgUi0JgJ7fF[] = {
/* columns rows colors chars-per-pixel */
"64 64 3 1 ",
"  c black",
". c #FF7E00",
"X c #E5AA7A",
/* pixels */
"....XXXXXXXXXXXXXXXXXXXXXXXXXXXXXXXX    ....XXXXXXXXXXXXXXXX....",
"....XXXXXXXXXXXXXXXXXXXXXXXXXXXXXXXX    ....XXXXXXXXXXXXXXXX....",
"....XXXXXXXXXXXXXXXXXXXXXXXXXXXXXXXX    ....XXXXXXXXXXXXXXXX....",
"....XXXXXXXXXXXXXXXXXXXXXXXXXXXXXXXX    ....XXXXXXXXXXXXXXXX....",
"XXXX................................    XXXX................    ",
"XXXX................................    XXXX................    ",
"XXXX................................    XXXX................    ",
"XXXX................................    XXXX................    ",
"XXXX................................    XXXX................    ",
"XXXX................................    XXXX................    ",
"XXXX................................    XXXX................    ",
"XXXX................................    XXXX................    ",
"XXXX................................    XXXX................    ",
"XXXX................................    XXXX................    ",
"XXXX................................    XXXX................    ",
"XXXX................................    XXXX................    ",
"XXXX................................    XXXX    ............    ",
"XXXX................................    XXXX    ............    ",
"XXXX................................    XXXX    ............    ",
"XXXX................................    XXXX    ............    ",
"XXXX................................    ....                ....",
"XXXX................................    ....                ....",
"XXXX................................    ....                ....",
"XXXX................................    ....                ....",
"XXXX................................    XXXXXXXXXXXXXXXXXXXX    ",
"XXXX................................    XXXXXXXXXXXXXXXXXXXX    ",
"XXXX................................    XXXXXXXXXXXXXXXXXXXX    ",
"XXXX................................    XXXXXXXXXXXXXXXXXXXX    ",
"XXXX................................    XXXX................    ",
"XXXX................................    XXXX................    ",
"XXXX................................    XXXX................    ",
"XXXX................................    XXXX................    ",
"XXXX................................    XXXX................    ",
"XXXX................................    XXXX................    ",
"XXXX................................    XXXX................    ",
"XXXX................................    XXXX................    ",
"XXXX................................    XXXX................    ",
"XXXX................................    XXXX................    ",
"XXXX................................    XXXX................    ",
"XXXX................................    XXXX................    ",
"        ........................    XXXX....................    ",
"        ........................    XXXX....................    ",
"        ........................    XXXX....................    ",
"        ........................    XXXX....................    ",
"XXXXXXXX        ................    XXXX....................    ",
"XXXXXXXX        ................    XXXX....................    ",
"XXXXXXXX        ................    XXXX....................    ",
"XXXXXXXX        ................    XXXX....................    ",
"XXXX....XXXXXXXX                XXXX........................    ",
"XXXX....XXXXXXXX                XXXX........................    ",
"XXXX....XXXXXXXX                XXXX........................    ",
"XXXX....XXXXXXXX                XXXX........................    ",
"XXXX............XXXXXXXXXXXX    XXXX........................    ",
"XXXX............XXXXXXXXXXXX    XXXX........................    ",
"XXXX............XXXXXXXXXXXX    XXXX........................    ",
"XXXX............XXXXXXXXXXXX    XXXX........................    ",
"XXXX........................    XXXX....................        ",
"XXXX........................    XXXX....................        ",
"XXXX........................    XXXX....................        ",
"XXXX........................    XXXX....................        ",
"....                        ....XXXX                        ....",
"....                        ....XXXX                        ....",
"....                        ....XXXX                        ....",
"....                        ....XXXX                        ...."
};
